# xmcd
#
# Track frame offsets:
#	150
#	13347
#	47760
#	65935
#	82435
#	97632
#	117390
#	142052
#
# Disc length: 2248 seconds
# Revision: 0
# Processed by: cddbd v1.5.2PL0 Copyright (c) Steve Scherf et al.
# Submitted via: dBpowerAMP V12.0
#
DISCID=7708c608
DTITLE=Norman Blake • Tut Taylor • Sam Bush • Butch Robins • Vassar Clements • Dave Holland • Jethro Burns - Norman Blake • Tut Taylor • Sam Bush • Butch Robins • Vassar Clements • Dave Holland • Jethro Burns
DYEAR=2005
DGENRE=Country
TTITLE0=Sweet Georgia Brown
TTITLE1=Saurkraut 'N Solar Energy
TTITLE2=The Old Brown Case
TTITLE3='A' Train
TTITLE4=Going Home
TTITLE5=McKinley's Blues
TTITLE6=Oconee
TTITLE7=Vassar and Dave
EXTD=
EXTT0=
EXTT1=
EXTT2=
EXTT3=
EXTT4=
EXTT5=
EXTT6=
EXTT7=
PLAYORDER=
